<?xml version="1.0" standalone="no"?>
<!DOCTYPE svg PUBLIC "-//W3C//DTD SVG 20010904//EN"
 "http://www.w3.org/TR/2001/REC-SVG-20010904/DTD/svg10.dtd">
<svg version="1.0" xmlns="http://www.w3.org/2000/svg"
 width="442.000000pt" height="442.000000pt" viewBox="0 0 442.000000 442.000000"
 preserveAspectRatio="xMidYMid meet">
<metadata>
Created by potrace 1.11, written by Peter Selinger 2001-2013
</metadata>
<g transform="translate(0.000000,442.000000) scale(0.100000,-0.100000)"
fill="#000000" stroke="none">
<path d="M347 4413 c-3 -5 -1 -190 4 -413 8 -394 19 -602 38 -725 6 -33 20
-134 31 -225 33 -255 39 -293 50 -304 18 -18 24 27 11 93 -7 36 -17 95 -21
131 -5 36 -15 119 -23 185 -8 66 -13 122 -11 124 8 9 2605 14 3087 6 l488 -7
-6 -77 c-4 -42 -8 -89 -9 -106 -2 -16 -5 -37 -9 -45 -3 -8 -11 -55 -17 -105
-7 -49 -15 -111 -19 -137 -5 -29 -3 -52 3 -58 7 -7 5 -10 -6 -10 -11 0 -17
-14 -21 -51 -7 -60 -32 -168 -92 -404 -91 -352 -208 -679 -341 -946 -50 -102
-104 -204 -118 -225 -14 -21 -59 -89 -100 -151 -252 -380 -567 -672 -940 -869
l-109 -57 -86 42 c-258 128 -482 300 -705 541 -85 92 -251 310 -331 436 -27
43 -53 82 -57 88 -22 34 -191 395 -221 471 -118 305 -203 585 -276 915 -17 74
-32 151 -33 170 -2 23 -8 35 -18 35 -11 0 -14 -9 -13 -35 4 -55 34 -194 44
-206 5 -6 6 -13 3 -17 -6 -5 41 -207 77 -332 40 -138 122 -390 129 -395 4 -3
10 -18 14 -35 12 -47 103 -258 169 -390 172 -346 328 -566 572 -811 223 -224
386 -344 646 -474 l81 -41 112 57 c253 130 407 244 621 458 217 217 378 444
541 761 77 148 194 410 194 433 0 5 14 42 30 83 39 94 121 367 160 534 17 72
39 166 50 210 10 44 21 103 25 130 3 28 10 66 15 85 20 82 59 345 64 440 2 36
6 72 9 80 3 8 8 47 12 85 4 39 11 108 16 155 5 47 12 271 15 498 l7 412 -1866
0 c-1026 0 -1868 -3 -1870 -7z m758 -205 c6 -3 26 -9 45 -13 19 -4 43 -13 54
-19 43 -24 125 -110 148 -154 12 -26 26 -48 31 -50 11 -5 9 -220 -3 -227 -6
-4 -19 -23 -29 -44 -25 -47 -109 -141 -127 -141 -8 0 -14 -4 -14 -10 0 -5 -9
-10 -19 -10 -11 0 -22 -4 -26 -9 -21 -34 -275 -25 -275 9 0 6 -6 10 -13 10 -7
0 -39 22 -70 48 -62 53 -100 116 -117 196 -11 52 -4 162 11 172 5 3 9 16 9 30
0 13 5 24 10 24 6 0 10 6 10 13 0 19 79 100 125 129 22 14 55 29 73 32 17 4
34 11 37 15 5 9 125 8 140 -1z m1190 -2 c113 -40 229 -145 252 -227 33 -116
23 -222 -28 -296 -36 -51 -104 -123 -118 -123 -5 0 -17 -7 -25 -16 -42 -41
-230 -46 -313 -8 -50 23 -155 131 -172 175 -7 18 -17 42 -23 53 -14 26 -7 163
11 211 18 49 53 101 95 138 50 45 118 87 142 87 13 0 25 4 28 8 6 10 122 9
151 -2z m1165 1 c8 -2 35 -12 60 -21 84 -30 177 -124 195 -198 4 -16 11 -28
15 -28 14 0 18 -105 6 -160 -23 -104 -96 -208 -172 -242 -13 -6 -24 -15 -24
-19 0 -10 -93 -31 -143 -32 -58 0 -135 12 -142 24 -4 5 -13 9 -21 9 -30 0
-111 82 -161 164 -35 57 -37 64 -37 151 -1 70 4 102 19 136 36 81 125 171 194
195 25 8 53 19 61 23 16 8 125 7 150 -2z"/>
<path d="M985 4040 c-18 -7 -18 -9 -3 -15 13 -5 17 -29 23 -139 8 -152 3 -189
-28 -203 -19 -9 -14 -12 35 -18 32 -4 70 -4 85 0 l28 7 -28 20 -27 20 0 141 0
142 32 27 33 27 -65 0 c-36 0 -74 -4 -85 -9z"/>
<path d="M2097 4041 c-17 -6 -17 -8 -3 -20 13 -11 16 -38 16 -161 0 -147 0
-149 -25 -168 -30 -24 -24 -29 30 -27 22 1 81 2 130 3 50 1 95 6 101 10 16 10
28 82 14 82 -6 0 -26 -16 -44 -35 -26 -27 -41 -35 -67 -35 -62 0 -64 5 -67
163 -3 125 -1 146 14 161 29 30 100 2 116 -46 8 -23 28 4 28 37 0 24 -5 35
-17 38 -30 8 -207 6 -226 -2z"/>
<path d="M2272 3897 c-27 -29 -27 -31 0 -68 23 -31 23 -31 29 -7 10 34 10 98
1 98 -5 0 -18 -10 -30 -23z"/>
<path d="M3382 4037 c-6 -6 -20 -37 -31 -67 -12 -30 -26 -65 -31 -77 -13 -30
-24 -57 -50 -120 -12 -28 -30 -59 -41 -69 -10 -9 -19 -20 -19 -24 0 -10 86
-21 105 -14 14 6 13 9 -4 25 -16 15 -18 24 -11 50 14 46 29 59 70 59 57 0 85
-28 85 -83 0 -41 3 -46 25 -51 14 -2 45 -2 69 1 l42 6 -27 17 c-28 19 -49 60
-79 150 -33 102 -76 210 -85 210 -4 0 -12 -6 -18 -13z m23 -154 l14 -43 -43 0
-44 0 12 33 c7 17 19 45 27 61 12 25 14 27 17 10 2 -10 9 -38 17 -61z"/>
<path d="M2230 2785 c0 -43 -51 -76 -186 -118 -115 -36 -237 -56 -397 -64
l-138 -6 -59 -64 c-79 -84 -97 -112 -81 -122 7 -5 69 -11 138 -15 70 -4 140
-10 157 -13 l31 -7 -35 -7 c-19 -5 -96 -11 -170 -14 -189 -9 -192 -10 -228
-98 -38 -93 -55 -147 -49 -154 5 -4 104 -20 255 -39 24 -3 42 -8 39 -10 -2 -2
-73 -12 -158 -20 -85 -9 -158 -20 -163 -25 -10 -9 -22 -269 -12 -269 3 0 50
-6 104 -14 53 -8 129 -18 167 -22 62 -6 66 -8 39 -15 -16 -5 -91 -14 -165 -21
l-134 -13 4 -30 c1 -16 17 -73 35 -125 l31 -95 45 -3 c70 -3 344 -33 348 -37
8 -7 -39 -15 -182 -30 -83 -8 -152 -17 -154 -20 -7 -7 67 -111 114 -161 l40
-44 120 -1 c65 0 137 -4 159 -8 l40 -7 -30 -7 c-16 -3 -76 -9 -132 -13 -57 -4
-103 -10 -103 -13 0 -10 117 -94 159 -116 25 -12 65 -18 145 -21 139 -5 245
-20 314 -46 56 -21 102 -18 102 7 0 8 -14 31 -32 50 l-32 37 29 -4 c39 -4 71
-48 56 -77 -10 -19 -9 -21 12 -21 29 0 134 35 153 51 8 7 14 31 14 60 0 47 1
49 29 49 30 0 41 -14 41 -56 0 -13 3 -24 6 -24 22 0 179 118 196 147 13 21 40
44 72 60 169 85 315 210 373 319 78 146 93 410 37 629 -21 82 -94 233 -150
312 -128 179 -345 338 -496 363 -29 4 -66 13 -81 19 -16 6 -76 11 -133 10
-102 -1 -104 -1 -104 -24z m168 -25 c54 -39 58 -82 11 -134 -42 -49 -159 -106
-215 -106 -24 0 -44 3 -44 8 0 4 36 25 80 46 88 42 160 104 160 138 0 12 -12
35 -27 50 -35 37 -17 36 35 -2z m258 -62 c82 -76 80 -165 -6 -250 -46 -47 -78
-59 -108 -39 -10 6 -2 19 33 52 73 67 102 147 74 202 -6 12 -28 39 -48 61 -29
30 -31 36 -12 26 13 -7 43 -30 67 -52z m293 -217 c20 -37 17 -152 -5 -197 -21
-43 -40 -52 -69 -31 -18 14 -18 16 9 76 28 63 37 149 21 201 l-7 25 19 -25
c11 -14 26 -36 32 -49z m-662 -232 l28 -11 -35 -16 c-41 -18 -123 -19 -165 -1
l-30 12 40 13 c51 16 125 17 162 3z m851 -128 c3 -16 0 -21 -8 -16 -7 4 -16 1
-21 -6 -7 -11 -9 -11 -9 3 0 47 32 63 38 19z m-453 -28 c40 -19 43 -28 16 -43
-27 -14 -81 -12 -111 4 l-24 14 34 21 c42 25 41 25 85 4z m-453 -189 c32 -9
58 -20 58 -25 0 -8 -43 -23 -96 -34 -30 -6 -170 23 -160 33 4 4 116 38 135 41
3 1 31 -6 63 -15z m766 -6 c19 -19 14 -37 -13 -50 -22 -10 -29 -9 -48 11 -22
22 -22 22 -3 37 24 17 48 18 64 2z m-294 -197 l29 -19 -31 -16 c-39 -20 -55
-20 -92 -1 -37 19 -38 30 -2 43 41 16 64 14 96 -7z m466 7 c0 -20 -103 -154
-107 -141 -5 15 10 45 54 106 34 46 53 59 53 35z m-900 -180 l35 -15 -25 -14
c-34 -18 -155 -17 -200 2 l-35 16 60 16 c67 18 113 16 165 -5z m684 -35 c9
-22 -27 -58 -48 -50 -26 10 -31 36 -10 52 26 19 50 19 58 -2z m-308 -157 c22
-17 13 -31 -27 -41 -17 -4 -33 0 -50 14 l-24 20 25 10 c35 14 53 13 76 -3z
m-391 -126 c57 -22 -13 -45 -82 -28 -24 6 -43 14 -43 18 0 18 87 24 125 10z"/>
</g>
</svg>
